# xmcd
#
# Track frame offsets: 
#        150
#        6905
#        39846
#        72946
#        107343
#        140511
#        163793
#        197708
#
# Disc length: 3316 seconds
#
# Revision: 0
# Processed by: cddbd v1.5.2PL0 Copyright (c) Steve Scherf et al.
# Submitted via: ExactAudioCopy v0.95b3
#
DISCID=630cf208
DTITLE=Dave Brubeck  - Buried Treasures
DYEAR=1900
DGENRE=
TTITLE0=Introduction
TTITLE1=Mr. Broadway
TTITLE2=Koto Song
TTITLE3=Sweet Georgia Brown
TTITLE4=Forty Days
TTITLE5=Take Five
TTITLE6=You Go To My Head
TTITLE7=St. Louis Blues
EXTD=
EXTT0=
EXTT1=
EXTT2=
EXTT3=
EXTT4=
EXTT5=
EXTT6=
EXTT7=
PLAYORDER=
